<svg width="40" height="40" viewBox="0 0 40 40" fill="none" xmlns="http://www.w3.org/2000/svg">
<path d="M0.25 20C0.25 9.0926 9.0926 0.25 20 0.25C30.9074 0.25 39.75 9.0926 39.75 20C39.75 30.9074 30.9074 39.75 20 39.75C9.0926 39.75 0.25 30.9074 0.25 20ZM3.08336 20C3.08336 29.3426 10.6574 36.9166 20 36.9166C29.3426 36.9166 36.9166 29.3426 36.9166 20C36.9166 10.6574 29.3426 3.08336 20 3.08336C10.6574 3.08336 3.08336 10.6574 3.08336 20Z" fill="#04C45C" stroke="white" stroke-width="0.5"/>
<path d="M20.7097 8.49372C20.7036 8.49081 20.6975 8.48787 20.6914 8.48493C20.6737 8.4764 20.656 8.46789 20.6378 8.46028M20.7097 8.49372L27.8454 15.4881C28.4962 16.139 28.4962 17.1943 27.8454 17.8451C27.1945 18.496 26.1392 18.496 25.4883 17.8451L21.9168 14.2736V14.0236H21.6668L21.4901 14.2004L21.6668 14.3772V30C21.6668 30.9204 20.9207 31.6666 20.0002 31.6666C19.0797 31.6666 18.3336 30.9204 18.3336 30V14.3772L18.5103 14.2004L18.3336 14.0236H18.0836V14.2736L14.5121 17.8451C13.8612 18.496 12.8059 18.496 12.155 17.8451C11.5042 17.1943 11.5042 16.139 12.155 15.4881L18.8217 8.82146M20.7097 8.49372C20.7158 8.4966 20.722 8.49944 20.7281 8.50228M20.7097 8.49372L20.7281 8.50228M20.6378 8.46028C20.6193 8.45264 20.6004 8.44606 20.5816 8.43948C20.5754 8.43731 20.5692 8.43515 20.563 8.43294C20.5564 8.43057 20.5498 8.42816 20.5433 8.42575C20.5236 8.41856 20.504 8.41137 20.4839 8.40528C20.4659 8.39983 20.4477 8.39544 20.4295 8.39104C20.4224 8.38932 20.4153 8.38761 20.4082 8.38583C20.4012 8.38407 20.3943 8.38226 20.3874 8.38046C20.367 8.37514 20.3466 8.36982 20.3257 8.36567M20.6378 8.46028L20.5424 8.69138C20.5307 8.68653 20.5205 8.68298 20.5046 8.67743C20.4975 8.67493 20.4892 8.67204 20.4791 8.66844L20.4785 8.66823C20.4677 8.66436 20.459 8.66114 20.4514 8.65838C20.4349 8.65234 20.4244 8.64847 20.4115 8.64459L20.4114 8.64453C20.4004 8.64121 20.3918 8.63915 20.378 8.63583C20.3701 8.63392 20.3603 8.63158 20.3474 8.62832L20.3467 8.62816C20.3352 8.62525 20.326 8.62283 20.318 8.62076C20.301 8.61633 20.2902 8.6135 20.277 8.61087L20.3257 8.36567M20.6378 8.46028L20.5415 8.69101C20.5532 8.69589 20.5627 8.70048 20.5774 8.70756C20.5844 8.71092 20.5926 8.71485 20.6027 8.71964L20.6032 8.71991C20.6129 8.72446 20.621 8.72821 20.628 8.73148C20.6447 8.73921 20.6555 8.74424 20.6677 8.75076C20.6777 8.7561 20.6849 8.76053 20.6964 8.76755C20.7036 8.77192 20.7124 8.7773 20.7245 8.78452L20.7245 8.78455C20.7354 8.79104 20.744 8.7961 20.7513 8.80036C20.766 8.80893 20.7751 8.8143 20.7861 8.82163L20.7867 8.82205C20.7982 8.82974 20.8074 8.83673 20.8218 8.84768C20.8287 8.8529 20.8368 8.85902 20.8468 8.86655C20.8627 8.87847 20.8717 8.88486 20.8782 8.8895C20.8856 8.89477 20.8899 8.8978 20.8976 8.90414L20.8977 8.9043C20.9336 8.93371 20.9678 8.9646 21.0003 8.99695C21.0021 8.99877 21.0038 9.00041 21.0053 9.00183L27.6686 15.6649C28.2218 16.2181 28.2218 17.1151 27.6686 17.6684C27.1154 18.2216 26.2183 18.2216 25.6651 17.6684L21.8436 13.8469L21.4168 13.4201V14.0236V30C21.4168 30.7824 20.7826 31.4166 20.0002 31.4166C19.2178 31.4166 18.5836 30.7824 18.5836 30V14.0236V13.4201L18.1568 13.8469L14.3353 17.6684C13.7821 18.2216 12.8851 18.2216 12.3318 17.6684C11.7786 17.1151 11.7786 16.2181 12.3318 15.6649L18.9931 9.00358L18.9943 9.00257L19.0001 8.99677C19.0323 8.96458 19.0665 8.93375 19.1024 8.90433L18.9438 8.71107M20.3257 8.36567C20.3043 8.36144 20.2827 8.35847 20.2612 8.35549C20.2533 8.3544 20.2454 8.35331 20.2375 8.35216M20.3257 8.36567L20.2773 8.61095C20.2633 8.60817 20.2516 8.60656 20.2339 8.60412C20.2249 8.60289 20.2145 8.60145 20.2014 8.59954L20.2375 8.35216M20.2375 8.35216C20.2289 8.35094 20.2203 8.34957 20.2117 8.34819C20.1961 8.34568 20.1805 8.34318 20.1646 8.34161C20.0552 8.33083 19.945 8.33083 19.8356 8.34161C19.8193 8.34322 19.8033 8.34579 19.7872 8.34836C19.7791 8.34967 19.7709 8.35097 19.7627 8.35216C19.7555 8.35319 19.7483 8.35418 19.741 8.35516C19.7188 8.35821 19.6965 8.36125 19.6744 8.36567C19.6536 8.36981 19.6333 8.37511 19.6129 8.38043C19.6059 8.38224 19.599 8.38406 19.592 8.38583C19.5851 8.38756 19.5781 8.38923 19.5712 8.3909C19.5528 8.39534 19.5345 8.39978 19.5163 8.40528C19.4958 8.41147 19.4759 8.41879 19.4559 8.4261C19.4497 8.42839 19.4434 8.43068 19.4372 8.43294C19.4301 8.43546 19.4231 8.43792 19.4161 8.44038C19.3981 8.44668 19.3801 8.45298 19.3624 8.46028M20.2375 8.35216L20.2024 8.59969C20.1813 8.59671 20.1706 8.59488 20.163 8.59358C20.1549 8.5922 20.1502 8.5914 20.1402 8.59042L20.1401 8.59041C20.047 8.58123 19.9532 8.58123 19.8601 8.59041L19.8601 8.59041C19.8503 8.59137 19.845 8.59225 19.8358 8.59378C19.828 8.59509 19.8173 8.59688 19.7984 8.5996L19.7981 8.59963C19.7864 8.60131 19.7768 8.60263 19.7685 8.60377C19.7496 8.60635 19.7375 8.608 19.7236 8.61079L19.7231 8.6109C19.7099 8.61351 19.6992 8.61629 19.6824 8.62068C19.6745 8.62276 19.6651 8.6252 19.6534 8.62816L19.6526 8.62837C19.6402 8.63147 19.6307 8.63375 19.6229 8.63564C19.6087 8.63906 19.5999 8.64118 19.5888 8.64453L19.5886 8.64459C19.5756 8.64854 19.5645 8.65259 19.5473 8.65888C19.5401 8.66152 19.5318 8.66456 19.5219 8.66815L19.5217 8.66821C19.5094 8.67264 19.4999 8.67595 19.492 8.6787C19.478 8.6836 19.469 8.68674 19.4578 8.69138L19.3624 8.46028M19.3624 8.46028C19.3443 8.46778 19.3268 8.47625 19.3092 8.48472C19.303 8.48773 19.2967 8.49075 19.2904 8.49372C19.2842 8.49668 19.2779 8.49959 19.2716 8.5025C19.2524 8.51136 19.2333 8.52023 19.2146 8.53028C19.1984 8.53896 19.1828 8.54849 19.1671 8.55802C19.1606 8.56197 19.1541 8.56592 19.1476 8.56982C19.1414 8.57353 19.1351 8.5772 19.1289 8.58086C19.1107 8.59155 19.0925 8.60223 19.0748 8.61403M19.3624 8.46028L19.458 8.69127C19.4468 8.6959 19.438 8.70016 19.4239 8.70696C19.4168 8.71041 19.4083 8.71451 19.3975 8.71964L19.3969 8.71991C19.3866 8.72478 19.3781 8.7287 19.3709 8.73206C19.3548 8.73948 19.3447 8.74417 19.333 8.75047L19.3327 8.75064C19.3226 8.75604 19.3153 8.76049 19.3037 8.76757C19.2966 8.77194 19.2878 8.77731 19.2757 8.78452L19.2756 8.78455C19.2654 8.79068 19.257 8.79558 19.2499 8.79977C19.2347 8.80866 19.225 8.81439 19.2136 8.82194L19.0748 8.61403M19.0748 8.61403C19.0564 8.62638 19.0388 8.63973 19.0212 8.65307C19.0153 8.65755 19.0094 8.66202 19.0035 8.66646C18.9967 8.67155 18.9898 8.67651 18.983 8.68147C18.9698 8.69105 18.9566 8.70062 18.9438 8.71107M19.0748 8.61403L19.2139 8.82174C19.202 8.82975 19.1923 8.83712 19.1774 8.84841C19.1706 8.85353 19.1628 8.85946 19.1533 8.86662C19.138 8.87808 19.129 8.88447 19.1224 8.88921C19.1147 8.89474 19.1101 8.89802 19.1021 8.90452L18.9438 8.71107M18.9438 8.71107C18.902 8.74536 18.8618 8.78161 18.8235 8.81982L18.8217 8.82146M18.8217 8.82146L18.8475 8.8473L18.9985 8.99824M18.8217 8.82146L18.8475 8.84727L18.9985 8.99823L18.9985 8.99824M18.9985 8.99824C18.9947 9.00197 18.9917 9.00475 18.9902 9.00612C18.9893 9.00691 18.9885 9.00759 18.9882 9.00791M18.9985 8.99824L18.9882 9.00791M18.9882 9.00791L18.9881 9.00798L18.9882 9.00791ZM20.7856 8.53028C20.8018 8.53895 20.8174 8.54848 20.833 8.55801C20.8395 8.56197 20.846 8.56592 20.8525 8.56982C20.8589 8.5736 20.8653 8.57734 20.8716 8.58107C20.8897 8.59166 20.9078 8.60225 20.9254 8.61403C20.9437 8.62624 20.9612 8.63953 20.9786 8.65281C20.9846 8.65737 20.9906 8.66194 20.9967 8.66646C21.0035 8.67154 21.0103 8.67649 21.0172 8.68144L20.7856 8.53028ZM20.7856 8.53028C20.7667 8.5202 20.7474 8.51124 20.7281 8.50228M20.7856 8.53028L20.7281 8.50228M21.0132 9.00899C21.0135 9.00921 21.0126 9.00851 21.0111 9.00715L21.0124 9.00826L21.013 9.00881L21.0132 9.00895L21.0132 9.00899Z" fill="#04C45C" stroke="white" stroke-width="0.5"/>
</svg>
