<svg width="160" height="141" viewBox="0 0 160 141" fill="none" xmlns="http://www.w3.org/2000/svg">
<path d="M81.1125 0.0118756C37.0758 -0.740477 0.764236 34.3493 0.0118835 78.386C-0.415453 103.355 10.7133 125.796 28.4328 140.72C29.5914 139.709 30.8343 138.782 32.2156 138.029L56.011 125.05C59.1318 123.347 61.0758 120.075 61.0758 116.518V106.768C61.0758 106.768 54.091 98.4136 51.4277 86.8063C49.2188 85.3768 47.7381 82.9061 47.7381 80.0923V69.4209C47.7381 67.0736 48.7824 64.976 50.4045 63.5074V48.0812C50.4045 48.0812 47.2356 24.0751 79.7462 24.0751C112.257 24.0751 109.088 48.0812 109.088 48.0812V63.5074C110.713 64.976 111.754 67.0736 111.754 69.4209V80.0923C111.754 83.6795 109.347 86.6979 106.079 87.7061C104.258 93.3668 101.631 98.7627 98.1578 103.668C97.2821 104.905 96.4635 105.952 95.7473 106.768V116.765C95.7473 120.445 97.8268 123.813 101.119 125.456L126.6 138.195C128.129 138.959 129.51 139.925 130.783 141C147.967 126.669 159.068 105.242 159.481 81.1125C160.239 37.0758 125.152 0.764228 81.1125 0.0118756Z" fill="#E9E9E9"/>
</svg>
